<svg xmlns="http://www.w3.org/2000/svg" aria-hidden="true" style="position:absolute;width:0;height:0;overflow:hidden"><defs><symbol id="icon-envelop" viewBox="0 0 32 32"><path d="M29 4H3C1.35 4 0 5.35 0 7v20c0 1.65 1.35 3 3 3h26c1.65 0 3-1.35 3-3V7c0-1.65-1.35-3-3-3zM12.461 17.199 4 23.789V8.113l8.461 9.086zM5.512 8h20.976L16 15.875 5.512 8zm7.278 9.553L16 21l3.21-3.447L25.79 26H6.211l6.58-8.447zm6.749-.354L28 8.113v15.676l-8.461-6.59z"/></symbol><symbol id="icon-pushpin" viewBox="0 0 32 32"><path d="m17 0-3 3 3 3-7 8H3l5.5 5.5L0 30.769V32h1.231L12.5 23.5 18 29v-7l8-7 3 3 3-3L17 0zm-3 17-2-2 7-7 2 2-7 7z"/></symbol><symbol id="icon-mobile" viewBox="0 0 32 32"><path d="M23 0H9C7.35 0 6 1.35 6 3v26c0 1.65 1.35 3 3 3h14c1.65 0 3-1.35 3-3V3c0-1.65-1.35-3-3-3zM12 1.5h8v1h-8v-1zM16 30a2 2 0 1 1-.001-3.999A2 2 0 0 1 16 30zm8-6H8V4h16v20z"/></symbol><symbol id="icon-bubbles4" viewBox="0 0 36 32"><path d="M15 4c-1.583 0-3.112.248-4.543.738-1.341.459-2.535 1.107-3.547 1.926C5.034 8.182 4 10.127 4 12.138c0 1.125.315 2.217.935 3.247.646 1.073 1.622 2.056 2.821 2.842a3.998 3.998 0 0 1 1.761 2.748c.028.187.051.375.068.564.085-.079.169-.16.254-.244a4 4 0 0 1 3.326-1.134c.605.077 1.223.116 1.836.116 1.583 0 3.112-.248 4.543-.738 1.341-.459 2.535-1.107 3.547-1.926 1.876-1.518 2.91-3.463 2.91-5.474s-1.033-3.956-2.91-5.474c-1.012-.819-2.206-1.467-3.547-1.926a13.992 13.992 0 0 0-4.543-.738zm0-4c8.284 0 15 5.435 15 12.139s-6.716 12.139-15 12.139c-.796 0-1.576-.051-2.339-.147C9.439 27.34 5.718 27.916 2 28v-.785c2.008-.98 3.625-2.765 3.625-4.804 0-.285-.022-.564-.063-.837C2.17 19.349 0 15.949 0 12.14 0 5.436 6.716.001 15 .001zm16.125 27.209c0 1.748 1.135 3.278 2.875 4.118V32c-3.223-.072-6.181-.566-8.973-3.316-.661.083-1.337.126-2.027.126-2.983 0-5.732-.805-7.925-2.157 4.521-.016 8.789-1.464 12.026-4.084 1.631-1.32 2.919-2.87 3.825-4.605.961-1.84 1.449-3.799 1.449-5.825 0-.326-.014-.651-.039-.974C34.604 13.038 36 15.591 36 18.405c0 3.265-1.88 6.179-4.82 8.086a4.722 4.722 0 0 0-.055.718z"/></symbol><symbol id="icon-user-tie" viewBox="0 0 32 32"><path d="M10 6a6 6 0 1 1 12 0 6 6 0 0 1-12 0zm14.002 8h-1.107l-6.222 12.633L19 15l-3-3-3 3 2.327 11.633L9.105 14H7.998C4 14 4 16.687 4 20v10h24V20c0-3.313 0-6-3.998-6z"/></symbol></defs></svg>